:version 1.10
:name ASF
:units
  mass 1
  length 1
  angle deg
:documentation
  ASF file generated by Kaydara
:root
  axis xyz
  order  tx ty tz rx ry rz
  position 0 0 0
  orientation 0 0 0
:bonedata
  begin
    id 1
    name RightUpLegDummy
    direction -0.718183 -0.695806 0.00816078
    length 4.904
    axis 0 0 0 xyz
  end
  begin
    id 2
    name RightUpLeg
    direction -0.0736652 -0.994202 0.0783343
    length 17.4976
    axis -2.72909 -3.00389 -4.00133 xyz
    dof rx ry rz
  end
  begin
    id 3
    name RightLeg
    direction -0.0389037 -0.994596 -0.0962598
    length 16.5821
    axis 3.95836 -18.5909 -4.46993 xyz
    dof rx ry rz
  end
  begin
    id 4
    name RightFoot
    direction -0.311643 -0.412678 0.855906
    length 3.77069
    axis -1.99483 -18.8351 -3.27644 xyz
    dof rx ry rz
  end
  begin
    id 5
    name RightToes
    direction -0.317852 0.0389852 0.947339
    length 3.85082
    axis -2.00228 -18.1713 -3.25211 xyz
    dof rx ry rz
  end
  begin
    id 6
    name SpineDummy
    direction 8.3039e-015 1 4.44677e-016
    length 4.6813
    axis 0 0 0 xyz
  end
  begin
    id 7
    name Spine
    direction -0.000262373 0.999988 0.00493267
    length 10.1015
    axis -0.00246081 0.00062579 0.0150362 xyz
    dof rx ry rz
  end
  begin
    id 8
    name Spine1
    direction 0 0 0
    length 0
    axis -0.00349562 0.000650293 0.0196666 xyz
    dof rx ry rz
  end
  begin
    id 9
    name HEadDummy
    direction -0.000343232 0.999999 0.00123745
    length 3.43865
    axis -0.00349562 0.000650293 0.0196666 xyz
  end
  begin
    id 10
    name HEad
    direction -0.0461221 0.980933 0.188796
    length 5.12695
    axis -0.00351404 -7.04812 0.0199272 xyz
    dof rx ry rz
  end
  begin
    id 11
    name LeftShoulder1Dummy
    direction 0.998904 -0.0399089 -0.0244534
    length 3.5433
    axis -0.00349562 0.000650293 0.0196666 xyz
  end
  begin
    id 12
    name LeftShoulder1
    direction 0.99951 1.64443e-005 0.0312999
    length 4.05031
    axis -0.00349562 0.000650293 0.0196666 xyz
    dof rx ry rz
  end
  begin
    id 13
    name LeftArm
    direction 0.984791 0.0515299 0.165927
    length 12.9126
    axis -64.823 -10.7743 5.20463 xyz
    dof rx ry rz
  end
  begin
    id 14
    name LeftForeArm
    direction 0.984968 0.0534808 0.16425
    length 10.8596
    axis -30.0462 -7.70601 1.87451 xyz
    dof rx ry rz
  end
  begin
    id 15
    name LeftHand
    direction 0.975871 0.0289682 0.216418
    length 6.62295
    axis -20.1348 -6.98077 1.86072 xyz
    dof rx ry rz
  end
  begin
    id 16
    name RightShoulderDummy
    direction -0.998877 -0.0405946 -0.0244307
    length 3.5433
    axis -0.00349562 0.000650293 0.0196666 xyz
  end
  begin
    id 17
    name RightShoulder
    direction -0.998933 -0.0249743 -0.0388558
    length 4.05031
    axis -0.0205316 -4.02113 1.41395 xyz
    dof rx ry rz
  end
  begin
    id 18
    name RightArm
    direction -0.997559 0.068664 0.0127103
    length 12.9638
    axis -67.3882 1.84188 -6.15987 xyz
    dof rx ry rz
  end
  begin
    id 19
    name RightForeArm
    direction -0.991508 0.0912848 0.0926241
    length 10.8312
    axis -22.1975 3.41087 -4.28711 xyz
    dof rx ry rz
  end
  begin
    id 20
    name RightHand
    direction -0.989262 0.0600788 0.133232
    length 6.57864
    axis -12.2911 2.17515 -4.39675 xyz
    dof rx ry rz
  end
  begin
    id 21
    name LeftUpLegDummy
    direction 0.718183 -0.695806 0.00816078
    length 4.904
    axis 0 0 0 xyz
  end
  begin
    id 22
    name LeftUpLeg
    direction 0.0831398 -0.99469 0.0606531
    length 17.4976
    axis -1.71016 2.29552 4.63832 xyz
    dof rx ry rz
  end
  begin
    id 23
    name LeftLeg
    direction 0.0498442 -0.991778 -0.117862
    length 16.5821
    axis 5.13757 15.5727 5.13348 xyz
    dof rx ry rz
  end
  begin
    id 24
    name LeftFoot
    direction 0.269026 -0.433896 0.85986
    length 3.77069
    axis -0.576502 15.6961 4.10267 xyz
    dof rx ry rz
  end
  begin
    id 25
    name LeftToes
    direction 0.277311 0.0251143 0.960452
    length 3.85048
    axis -0.576502 15.6961 4.10267 xyz
    dof rx ry rz
  end
:hierarchy
  begin
    root RightUpLegDummy SpineDummy LeftUpLegDummy
    RightUpLegDummy RightUpLeg
    RightUpLeg RightLeg
    RightLeg RightFoot
    RightFoot RightToes
    SpineDummy Spine
    Spine Spine1
    Spine1 HEadDummy LeftShoulder1Dummy RightShoulderDummy
    HEadDummy HEad
    LeftShoulder1Dummy LeftShoulder1
    LeftShoulder1 LeftArm
    LeftArm LeftForeArm
    LeftForeArm LeftHand
    RightShoulderDummy RightShoulder
    RightShoulder RightArm
    RightArm RightForeArm
    RightForeArm RightHand
    LeftUpLegDummy LeftUpLeg
    LeftUpLeg LeftLeg
    LeftLeg LeftFoot
    LeftFoot LeftToes
  end

:SAMPLES-PER-SECOND 30
:FULLY-SPECIFIED
:DEGREES
153
root  -34.0497 38.5359 37.2414 175.192 9.15421 174.922
RightUpLeg  -18.7595 -1.53842 -2.24222
RightLeg  56.4682 10.8783 -9.28881
RightFoot  -10.1367 -0.010534 1.64972
RightToes  -5.82073e-011 -3.18055e-015 -2.98177e-016
Spine  11.2179 1.20198 -1.59465
Spine1  4.17751 2.74044 -8.78436
HEad  5.40424 -2.33789 -1.018
LeftShoulder1  -3.88251e-019 9.70628e-020 -3.87848e-018
LeftArm  -3.99642 39.7672 -66.3697
LeftForeArm  -15.1705 -35.2984 7.23117
LeftHand  -0.80838 -4.46164 10.1606
RightShoulder  7.66156 10.574 36.1064
RightArm  29.5385 -39.2132 26.96
RightForeArm  -30.7625 54.6492 -36.7058
RightHand  -2.31795 4.68749 -26.0753
LeftUpLeg  -14.521 -6.05263 -6.96685
LeftLeg  23.4047 -3.33035 5.89259
LeftFoot  -4.28098 -0.144097 1.72024
LeftToes  1.2018e-011 -3.94675e-011 -1.33631e-011
154
root  -34.1386 38.8692 36.8165 175.6 9.01794 176.75
RightUpLeg  -18.0559 -4.26046 0.294565
RightLeg  46.0451 6.55752 -11.7641
RightFoot  -11.2923 0.0149797 1.03457
RightToes  -5.82073e-011 -3.18055e-015 -2.98177e-016
Spine  11.2199 0.734797 -2.0053
Spine1  3.94725 1.51852 -4.93551
HEad  6.52832 -1.57284 -1.64708
LeftShoulder1  -3.88251e-019 9.70628e-020 -3.87848e-018
LeftArm  -4.07833 36.4846 -66.2413
LeftForeArm  -17.4662 -40.6951 8.85595
LeftHand  -0.802894 -3.76986 10.8375
RightShoulder  7.33368 10.3846 34.8675
RightArm  28.4936 -36.9651 28.3877
RightForeArm  -34.1331 57.7351 -41.9168
RightHand  -2.63421 5.67065 -26.9976
LeftUpLeg  -13.0001 -6.65994 -5.36902
LeftLeg  21.4096 -2.72075 5.72712
LeftFoot  -4.08327 -0.117093 1.34514
LeftToes  1.2018e-011 -3.94675e-011 -1.33631e-011
155
root  -34.1833 39.1254 36.425 176.032 9.095 178.235
RightUpLeg  -16.2844 -6.68471 2.55067
RightLeg  33.7857 5.65638 -8.59197
RightFoot  -10.4304 0.000233262 1.38331
RightToes  -5.82073e-011 -3.18055e-015 -2.98177e-016
Spine  11.314 0.32007 -2.44534
Spine1  3.74429 0.397617 -1.30975
HEad  7.06558 -0.474098 -2.08331
LeftShoulder1  -3.88251e-019 9.70628e-020 -3.87848e-018
LeftArm  -4.38419 33.6083 -65.7425
LeftForeArm  -19.8597 -45.7021 10.6308
LeftHand  -0.984646 -4.98469 11.6796
RightShoulder  7.01074 10.2183 33.5673
RightArm  26.6967 -34.7495 30.6794
RightForeArm  -37.3535 59.9879 -46.6746
RightHand  -2.83414 6.16518 -27.7947
LeftUpLeg  -11.7856 -6.406 -3.99746
LeftLeg  19.7446 -2.785 5.32173
LeftFoot  -3.81424 -0.134721 1.5378
LeftToes  1.2018e-011 -3.94675e-011 -1.33631e-011
156
root  -34.1891 39.1244 36.0897 176.326 8.92502 178.922
RightUpLeg  -14.6451 -8.12747 3.94932
RightLeg  24.2949 7.79259 -4.92821
RightFoot  -7.9183 0.095634 -1.5235
RightToes  -5.82073e-011 -3.18055e-015 -2.98177e-016
Spine  11.5963 -0.0497363 -2.95248
Spine1  3.78679 -0.518553 1.2846
HEad  7.07602 0.22605 -2.13833
LeftShoulder1  -3.88251e-019 9.70628e-020 -3.87848e-018
LeftArm  -4.48102 30.2125 -65.225
LeftForeArm  -19.5475 -49.4436 12.33
LeftHand  -1.46329 -7.75014 13.495
RightShoulder  6.71221 10.0967 32.2646
RightArm  23.9864 -32.877 33.659
RightForeArm  -39.8593 61.0821 -49.3331
RightHand  -3.03169 6.45844 -28.9394
LeftUpLeg  -11.8957 -6.37086 -3.38358
LeftLeg  20.6317 -3.12389 5.37068
LeftFoot  -4.71909 -0.148004 1.84389
LeftToes  1.2018e-011 -3.94675e-011 -1.33631e-011
157
root  -34.1959 38.9042 35.826 176.247 8.77365 179.112
RightUpLeg  -14.565 -6.94956 4.40881
RightLeg  22.3714 8.47406 -4.33345
RightFoot  -6.73732 0.299713 -5.10523
RightToes  -5.82073e-011 -3.18055e-015 -2.98177e-016
Spine  12.6142 -0.222328 -2.48254
Spine1  3.51043 -0.82912 2.2903
HEad  6.978 -0.00801986 -1.86417
LeftShoulder1  -3.88251e-019 9.70628e-020 -3.87848e-018
LeftArm  -4.40274 26.781 -65.3525
LeftForeArm  -16.3725 -51.5186 13.5929
LeftHand  -2.23302 -9.88474 17.5648
RightShoulder  6.46276 10.0242 31.0921
RightArm  20.8608 -31.6912 36.3901
RightForeArm  -38.9768 60.4816 -47.7091
RightHand  -3.79948 7.5822 -32.7974
LeftUpLeg  -12.8538 -6.22437 -3.2712
LeftLeg  23.6505 -3.62718 5.78577
LeftFoot  -6.74579 -0.105259 1.5542
LeftToes  1.2018e-011 -3.94675e-011 -1.33631e-011
158
root  -34.2309 38.6555 35.5886 175.796 9.44434 179.329
RightUpLeg  -15.0737 -4.74604 4.49392
RightLeg  25.206 7.64531 -5.22851
RightFoot  -7.78048 0.297892 -5.7836
RightToes  -5.82073e-011 -3.18055e-015 -2.98177e-016
Spine  14.316 -0.0838687 -0.641486
Spine1  2.8149 -0.272472 1.33694
HEad  7.05377 -0.651182 -1.58581
LeftShoulder1  -3.88251e-019 9.70628e-020 -3.87848e-018
LeftArm  -4.57326 25.2284 -66.2787
LeftForeArm  -13.985 -52.1265 14.0824
LeftHand  -2.88455 -9.42046 23.268
RightShoulder  6.30425 9.98784 30.3171
RightArm  18.4893 -31.5827 37.7326
RightForeArm  -33.5163 57.8154 -42.0831
RightHand  -5.05934 9.20323 -38.5984
LeftUpLeg  -13.3484 -4.9984 -3.09922
LeftLeg  26.6148 -4.31157 6.06155
LeftFoot  -8.77119 -0.0671025 1.16914
LeftToes  1.2018e-011 -3.94675e-011 -1.33631e-011
159
root  -34.2782 38.5404 35.3062 175.613 10.7068 179.715
RightUpLeg  -14.9413 -4.7262 4.70577
RightLeg  26.7887 8.47606 -5.06527
RightFoot  -8.95286 0.199374 -4.71479
RightToes  -5.82073e-011 -3.18055e-015 -2.98177e-016
Spine  15.5876 0.0781962 1.31047
Spine1  2.45476 0.450159 -0.298571
HEad  6.99977 -0.57932 -1.6906
LeftShoulder1  -3.88251e-019 9.70628e-020 -3.87848e-018
LeftArm  -5.4263 27.2025 -67.3033
LeftForeArm  -13.887 -51.7903 13.9007
LeftHand  -3.12137 -8.16119 27.2719
RightShoulder  6.2979 9.99929 30.2585
RightArm  18.14 -32.951 36.7811
RightForeArm  -26.5226 53.772 -35.7446
RightHand  -5.53399 9.5286 -41.0841
LeftUpLeg  -13.2036 -3.344 -2.70649
LeftLeg  28.1138 -4.76496 6.11853
LeftFoot  -10.1076 -0.0596218 1.24771
LeftToes  1.2018e-011 -3.94675e-011 -1.33631e-011
